<?xml version="1.0" standalone="no"?>
<!DOCTYPE svg PUBLIC "-//W3C//DTD SVG 20010904//EN"
 "http://www.w3.org/TR/2001/REC-SVG-20010904/DTD/svg10.dtd">
<svg version="1.0" xmlns="http://www.w3.org/2000/svg"
 width="220.000000pt" height="161.000000pt" viewBox="0 0 220.000000 161.000000"
 preserveAspectRatio="xMidYMid meet">

<g transform="translate(0.000000,161.000000) scale(0.100000,-0.100000)"
fill="#000000" stroke="none">
<path d="M0 805 l0 -805 1100 0 1100 0 0 805 0 805 -1100 0 -1100 0 0 -805z
m1690 540 l0 -105 -30 0 -30 0 0 70 0 70 -550 0 -550 0 0 -550 0 -550 548 2
547 3 1 65 1 65 32 3 31 3 0 -105 0 -106 -615 0 -615 0 0 620 0 620 615 0 615
0 0 -105z m2 -146 c29 -7 77 -22 107 -36 30 -13 64 -22 75 -21 19 3 22 -4 29
-81 5 -45 5 -86 1 -90 -3 -3 -16 7 -28 23 -47 66 -103 119 -151 144 -43 22
-63 26 -135 26 -100 0 -139 -14 -203 -73 -65 -60 -89 -123 -88 -231 1 -226
125 -360 334 -360 105 1 176 40 244 135 32 44 45 24 30 -45 -12 -52 -15 -57
-63 -82 -119 -64 -287 -75 -424 -27 -87 30 -167 108 -199 194 -32 85 -27 234
11 316 79 171 256 251 460 208z m-742 -316 l0 -46 38 41 c45 49 83 55 126 21
20 -16 25 -27 20 -43 -11 -37 -33 -47 -65 -31 -38 20 -62 19 -93 -6 -26 -20
-26 -22 -26 -151 0 -108 3 -135 17 -150 9 -10 24 -18 34 -18 24 0 49 -10 49
-21 0 -5 -52 -9 -115 -9 -63 0 -115 4 -115 9 0 5 10 15 23 23 21 14 22 24 26
142 4 172 0 193 -44 202 -66 12 -58 24 39 60 85 32 86 31 86 -23z"/>
</g>
</svg>
