<?xml version="1.0" standalone="no"?>
<!DOCTYPE svg PUBLIC "-//W3C//DTD SVG 20010904//EN"
 "http://www.w3.org/TR/2001/REC-SVG-20010904/DTD/svg10.dtd">
<svg version="1.0" xmlns="http://www.w3.org/2000/svg"
 width="216.000000pt" height="171.000000pt" viewBox="0 0 216.000000 171.000000"
 preserveAspectRatio="xMidYMid meet">

<g transform="translate(0.000000,171.000000) scale(0.100000,-0.100000)"
fill="#000000" stroke="none">
<path d="M450 840 l0 -620 615 0 615 0 0 105 0 105 -30 0 c-29 0 -29 0 -32
-68 l-3 -67 -547 -3 -548 -2 0 550 0 550 550 0 550 0 0 -70 0 -70 30 0 30 0 0
105 0 105 -615 0 -615 -1 0 -619z"/>
<path d="M1459 1206 c-102 -27 -190 -103 -237 -205 -24 -50 -27 -68 -27 -171
0 -97 3 -122 22 -162 60 -131 202 -208 384 -208 80 0 142 15 219 53 64 32 65
33 77 87 15 67 3 86 -29 44 -80 -105 -148 -139 -270 -132 -175 10 -279 109
-309 295 -20 125 9 220 91 297 137 129 352 92 471 -80 42 -62 52 -57 44 24 -9
100 -12 111 -33 106 -9 -3 -42 6 -72 19 -105 46 -234 59 -331 33z"/>
<path d="M854 916 c-34 -13 -66 -26 -73 -30 -17 -11 -3 -26 24 -26 51 0 57
-20 53 -183 -3 -142 -4 -150 -25 -165 -13 -8 -23 -18 -23 -23 0 -5 52 -9 115
-9 63 0 115 4 115 9 0 11 -25 21 -49 21 -10 0 -26 9 -35 19 -14 16 -17 41 -18
147 0 127 0 128 26 151 31 27 56 29 95 8 32 -16 54 -6 65 31 5 16 0 27 -20 43
-43 34 -81 28 -126 -21 l-38 -41 0 46 c0 54 -1 55 -86 23z"/>
</g>
</svg>
